<?xml version="1.0" standalone="no"?>
<!DOCTYPE svg PUBLIC "-//W3C//DTD SVG 20010904//EN"
 "http://www.w3.org/TR/2001/REC-SVG-20010904/DTD/svg10.dtd">
<svg version="1.0" xmlns="http://www.w3.org/2000/svg"
 width="300.000000pt" height="300.000000pt" viewBox="0 0 300.000000 300.000000"
 preserveAspectRatio="xMidYMid meet">
<metadata>
Created by potrace 1.11, written by Peter Selinger 2001-2013
</metadata>
<g transform="translate(0.000000,300.000000) scale(0.100000,-0.100000)"
fill="#000000" stroke="none">
<path d="M524 2768 c-46 -22 -47 -30 -46 -525 0 -257 1 -475 1 -485 1 -9 22
-28 47 -43 29 -17 58 -45 77 -76 16 -27 37 -49 46 -49 9 -1 194 -1 411 -2 441
-1 447 -2 523 -69 53 -46 78 -101 84 -185 5 -56 -6 -117 -42 -240 -6 -20 -4
-22 31 -18 48 4 42 0 399 279 271 212 356 272 411 291 30 10 54 23 55 29 5 56
0 1009 -5 1037 -12 66 -16 67 -365 68 l-311 1 -2 -341 -3 -340 -165 110 c-91
60 -169 110 -173 110 -4 0 -81 -50 -170 -110 l-162 -110 -3 340 -2 340 -308
-1 c-189 0 -315 -4 -328 -11z"/>
<path d="M188 1577 c-53 -21 -52 -11 -52 -673 0 -741 -17 -668 155 -672 137
-3 156 1 171 36 15 35 21 1211 6 1260 -6 19 -21 38 -36 46 -32 16 -203 19
-244 3z"/>
<path d="M2528 1486 c-16 -8 -28 -13 -28 -10 0 9 -86 -55 -399 -299 -205 -160
-328 -249 -355 -258 -29 -9 -124 -13 -328 -14 -251 -1 -324 2 -260 11 129 19
262 130 312 261 15 37 23 82 24 125 1 58 -2 71 -22 90 l-23 23 -382 2 c-210 1
-391 0 -402 -2 -20 -4 -20 -12 -20 -512 l0 -508 605 1 c736 1 670 -11 896 166
45 34 94 73 110 85 16 13 145 114 288 225 232 182 262 209 288 258 27 50 29
62 24 132 -4 69 -8 83 -38 125 -50 70 -112 105 -195 110 -48 3 -76 0 -95 -11z"/>
</g>
</svg>
